<svg xmlns="http://www.w3.org/2000/svg" viewBox="0 0 24 24" width="24" height="24" aria-hidden="true">
  <path fill="#e6eef0" d="M12 .5C5.65.5.5 5.66.5 12c0 5.08 3.29 9.39 7.86 10.92.58.1.79-.25.79-.56 0-.28-.01-1.02-.02-2-3.2.7-3.88-1.49-3.88-1.49-.53-1.36-1.3-1.72-1.3-1.72-1.06-.72.08-.7.08-.7 1.17.08 1.78 1.2 1.78 1.2 1.04 1.78 2.72 1.27 3.39.97.11-.76.41-1.27.74-1.56-2.56-.29-5.26-1.28-5.26-5.71 0-1.26.45-2.28 1.19-3.09-.12-.3-.52-1.52.11-3.17 0 0 .97-.31 3.18 1.18a11 11 0 012.9-.39c.98 0 1.97.13 2.9.39 2.2-1.5 3.17-1.18 3.17-1.18.63 1.65.23 2.87.11 3.17.74.81 1.19 1.83 1.19 3.09 0 4.44-2.7 5.42-5.28 5.7.42.36.8 1.08.8 2.18 0 1.57-.01 2.84-.01 3.23 0 .31.21.67.8.56C20.71 21.39 24 17.09 24 12c0-6.34-5.15-11.5-12-11.5z"/>
</svg>